<?xml version="1.0" standalone="no"?>
<!DOCTYPE svg PUBLIC "-//W3C//DTD SVG 20010904//EN"
 "http://www.w3.org/TR/2001/REC-SVG-20010904/DTD/svg10.dtd">
<svg version="1.0" xmlns="http://www.w3.org/2000/svg"
 width="2600.000000pt" height="2794.000000pt" viewBox="0 0 2600.000000 2794.000000"
 preserveAspectRatio="xMidYMid meet">

<g transform="translate(0.000000,2794.000000) scale(0.100000,-0.100000)"
fill="#000000" stroke="none">
<path d="M6755 26235 c-166 -14 -185 -16 -400 -51 -689 -113 -1490 -451 -2130
-899 -365 -255 -729 -604 -1011 -970 -900 -1164 -1356 -2780 -1281 -4535 4
-102 10 -198 12 -215 2 -16 6 -66 10 -110 36 -485 155 -1158 301 -1710 576
-2169 1814 -4246 3793 -6365 224 -240 901 -913 1151 -1145 1027 -952 1924
-1689 3960 -3254 338 -260 619 -477 623 -481 5 -4 -33 -90 -84 -191 -460 -919
-743 -1847 -829 -2714 -6 -60 -13 -126 -15 -145 -7 -60 -20 -370 -20 -480 0
-143 15 -191 81 -257 113 -114 281 -110 391 9 62 68 70 108 77 373 3 127 8
241 10 255 2 14 7 61 11 105 54 682 269 1478 600 2225 81 182 222 470 230 470
9 0 765 -592 1155 -904 1332 -1066 2393 -2018 3223 -2891 324 -341 341 -357
386 -377 87 -39 209 -22 281 39 62 53 92 112 98 193 9 134 -20 170 -668 823
-1056 1065 -2205 2055 -3960 3412 -113 87 -215 167 -227 178 l-22 19 81 132
c560 914 1316 1842 2254 2766 455 448 856 820 1744 1620 283 255 616 556 740
669 1306 1194 2120 2054 2799 2958 958 1278 1590 2720 1806 4123 76 494 99
1083 61 1520 -41 469 -121 874 -248 1270 -208 645 -504 1181 -942 1705 -128
154 -455 480 -616 617 -902 760 -2015 1232 -3145 1333 -696 63 -1340 -13
-1965 -231 -384 -133 -834 -374 -1380 -737 -567 -378 -1124 -858 -1553 -1340
l-140 -158 -20 33 c-171 279 -451 671 -686 958 -336 412 -800 881 -1181 1195
-781 645 -1647 1041 -2495 1140 -77 9 -153 18 -170 21 -72 12 -549 11 -690 -1z
m472 -536 c265 -4 610 -60 897 -145 628 -186 1243 -541 1806 -1043 647 -577
1211 -1256 1644 -1978 l67 -111 -73 -109 c-198 -295 -410 -692 -536 -1001
-166 -407 -279 -852 -312 -1227 -13 -156 -13 -440 1 -563 82 -760 481 -1256
1061 -1321 140 -16 332 -3 463 30 432 110 721 502 800 1085 20 144 27 455 14
619 -47 613 -242 1308 -569 2031 -45 98 -109 232 -142 296 l-60 117 88 108
c570 695 1302 1294 2210 1811 530 302 1011 457 1599 516 187 19 696 14 890 -9
618 -72 1206 -252 1770 -544 1056 -546 1847 -1388 2254 -2398 140 -348 250
-753 301 -1108 6 -44 13 -91 15 -105 43 -257 53 -956 19 -1276 -117 -1089
-450 -2106 -1032 -3154 -656 -1179 -1634 -2320 -3307 -3855 -273 -250 -546
-498 -915 -830 -1367 -1230 -2060 -1906 -2676 -2610 -527 -603 -983 -1212
-1348 -1802 -49 -79 -91 -143 -95 -143 -10 0 -1179 901 -1726 1329 -1894 1484
-3087 2556 -4161 3742 -1678 1852 -2790 3728 -3333 5624 -189 661 -324 1426
-359 2030 -12 211 -8 835 6 1010 96 1175 415 2169 957 2985 411 618 891 1058
1550 1419 558 306 1093 487 1645 556 127 16 431 35 457 29 7 -2 65 -4 130 -5z
m4838 -4120 c228 -527 382 -1073 440 -1569 22 -180 14 -576 -13 -705 -71 -335
-208 -515 -421 -555 -71 -13 -217 -13 -283 1 -223 47 -398 257 -479 575 -38
150 -49 247 -54 439 -3 177 4 285 36 484 77 492 312 1096 611 1574 l30 47 35
-72 c19 -40 63 -139 98 -219z"/>
</g>
</svg>
