<?xml version="1.0" standalone="no"?>
<!DOCTYPE svg PUBLIC "-//W3C//DTD SVG 20010904//EN"
 "http://www.w3.org/TR/2001/REC-SVG-20010904/DTD/svg10.dtd">
<svg version="1.0" xmlns="http://www.w3.org/2000/svg"
 width="2978.000000pt" height="2828.000000pt" viewBox="0 0 2978.000000 2828.000000"
 preserveAspectRatio="xMidYMid meet">

<g transform="translate(0.000000,2828.000000) scale(0.100000,-0.100000)"
fill="#000000" stroke="none">
<path d="M11420 26434 c-19 -2 -98 -9 -175 -14 -948 -73 -1905 -469 -2720
-1123 -727 -584 -1338 -1366 -1775 -2270 -383 -792 -628 -1634 -785 -2703 -25
-169 -67 -581 -80 -784 -4 -52 -8 -108 -10 -125 -2 -16 -7 -106 -10 -200 -4
-93 -9 -192 -11 -220 -6 -75 -6 -890 0 -970 3 -38 8 -119 11 -180 8 -135 32
-424 45 -525 5 -41 12 -97 15 -125 95 -801 339 -1781 665 -2675 1061 -2904
3213 -5850 6067 -8302 l243 -208 -372 -184 c-205 -101 -454 -222 -553 -269
-2560 -1213 -5221 -2107 -7954 -2673 -145 -30 -282 -63 -305 -73 -48 -21 -111
-87 -134 -140 -24 -55 -21 -166 6 -217 52 -101 137 -156 239 -156 79 -1 598
108 1238 258 2739 644 5509 1658 8005 2931 240 122 288 143 303 133 10 -6 102
-76 203 -156 1200 -942 2535 -1809 3914 -2541 462 -246 547 -285 621 -291 159
-11 284 109 283 273 0 58 -5 79 -29 124 -17 30 -43 65 -60 78 -16 13 -122 71
-235 129 -973 499 -1910 1056 -2790 1658 -409 279 -964 684 -1283 934 l-108
85 48 27 c26 15 125 69 218 120 558 306 1357 777 1860 1097 77 48 175 111 219
138 166 106 861 568 1051 700 1748 1212 3309 2506 4803 3979 1698 1676 2795
3093 3507 4531 442 895 720 1753 864 2675 57 361 82 672 86 1085 5 391 -11
661 -56 995 -176 1297 -709 2408 -1583 3298 -780 795 -1736 1295 -2735 1431
-224 31 -229 31 -512 38 -466 10 -848 -33 -1304 -149 -1231 -312 -2507 -1123
-3868 -2457 -103 -101 -189 -182 -191 -180 -2 2 -27 63 -56 134 -114 283 -301
638 -473 895 -313 468 -714 891 -1147 1212 -410 302 -888 548 -1385 710 -353
115 -716 188 -1130 229 -106 10 -614 20 -685 13z m514 -549 c768 -34 1616
-322 2251 -763 758 -526 1331 -1295 1644 -2205 l41 -119 -58 -63 c-31 -34
-138 -150 -236 -256 -372 -402 -515 -598 -624 -852 -72 -167 -94 -268 -98
-442 -4 -200 24 -329 104 -490 157 -315 421 -496 727 -497 497 -1 852 444 915
1147 8 92 5 436 -5 509 -2 17 -6 65 -10 106 -15 178 -42 360 -82 554 l-27 129
275 271 c812 802 1491 1350 2197 1773 748 448 1500 713 2232 785 267 26 673
14 955 -28 640 -96 1262 -362 1831 -784 340 -252 706 -618 975 -975 331 -439
600 -948 768 -1455 142 -425 237 -896 271 -1340 5 -74 13 -162 16 -195 7 -76
7 -630 0 -710 -3 -33 -8 -98 -11 -145 -6 -77 -14 -172 -31 -330 -3 -30 -19
-143 -35 -250 -307 -1991 -1364 -3888 -3350 -6010 -1288 -1377 -2787 -2722
-4359 -3912 -1353 -1023 -2888 -2019 -4320 -2801 -36 -19 -126 -68 -200 -109
-74 -40 -165 -89 -201 -108 l-67 -34 -153 129 c-1347 1133 -2488 2308 -3495
3600 -1918 2461 -3090 5088 -3333 7475 -42 404 -49 605 -45 1130 2 256 6 479
8 495 2 17 7 99 11 183 3 84 8 162 10 175 2 12 6 63 10 112 7 97 42 453 50
507 2 18 18 128 35 244 245 1702 869 3075 1860 4088 395 403 771 692 1226 940
595 325 1280 513 1909 525 60 1 111 4 113 5 3 4 62 2 306 -9z m4090 -3795 c38
-320 47 -627 21 -795 -42 -275 -142 -472 -270 -531 -63 -30 -107 -30 -170 0
-119 55 -206 220 -208 391 -2 195 107 414 345 691 114 133 270 305 274 301 1
-1 5 -27 8 -57z"/>
</g>
</svg>
